<?xml version="1.0" encoding="UTF-8" standalone="no"?>
<!-- Created with Inkscape (http://www.inkscape.org/) -->

<svg
   width="16"
   height="16"
   viewBox="0 0 16 16"
   version="1.1"
   id="svg1"
   inkscape:version="1.3 (0e150ed6c4, 2023-07-21)"
   sodipodi:docname="lock_unfilled.svg"
   xmlns:inkscape="http://www.inkscape.org/namespaces/inkscape"
   xmlns:sodipodi="http://sodipodi.sourceforge.net/DTD/sodipodi-0.dtd"
   xmlns="http://www.w3.org/2000/svg"
   xmlns:svg="http://www.w3.org/2000/svg">
  <sodipodi:namedview
     id="namedview1"
     pagecolor="#ffffff"
     bordercolor="#999999"
     borderopacity="1"
     inkscape:showpageshadow="2"
     inkscape:pageopacity="0"
     inkscape:pagecheckerboard="true"
     inkscape:deskcolor="#d1d1d1"
     inkscape:document-units="px"
     inkscape:zoom="39.377009"
     inkscape:cx="6.2346025"
     inkscape:cy="9.9931409"
     inkscape:window-width="1920"
     inkscape:window-height="1129"
     inkscape:window-x="-8"
     inkscape:window-y="-8"
     inkscape:window-maximized="1"
     inkscape:current-layer="layer1" />
  <defs
     id="defs1">
    <inkscape:path-effect
       effect="fillet_chamfer"
       id="path-effect5"
       is_visible="true"
       lpeversion="1"
       nodesatellites_param="F,0,0,1,0,0.5135716,0,1 @ F,0,0,1,0,0.5135716,0,1 @ F,0,0,1,0,0.5135716,0,1 @ F,0,0,1,0,0.5135716,0,1 | F,0,0,1,0,0,0,1 @ F,0,0,1,0,0,0,1 @ F,0,0,1,0,0,0,1 @ F,0,1,1,0,0.13314929,0,1 @ F,0,0,1,0,0.13314929,0,1 @ F,0,0,1,0,0,0,1 @ F,0,0,1,0,0,0,1"
       radius="0"
       unit="px"
       method="auto"
       mode="F"
       chamfer_steps="1"
       flexible="false"
       use_knot_distance="true"
       apply_no_radius="true"
       apply_with_radius="true"
       only_selected="false"
       hide_knots="false" />
  </defs>
  <g
     inkscape:label="Layer 1"
     inkscape:groupmode="layer"
     id="layer1">
    <path
       id="rect2"
       style="fill:none;stroke:#000000;stroke-width:0.76501224;stroke-linecap:round;stroke-linejoin:miter;stroke-dasharray:none"
       d="m 3.3320312,8.4862278 0,5.0783252 a 0.5135716,0.5135716 45 0 0 0.5135716,0.513572 h 8.3087942 a 0.5135716,0.5135716 135 0 0 0.513572,-0.513572 V 8.4862278 A 0.5135716,0.5135716 45 0 0 12.154397,7.9726562 H 3.8456028 A 0.5135716,0.5135716 135 0 0 3.3320312,8.4862278 Z M 8,9.1284822 c 0.6612102,4.4e-5 1.1972159,0.5360498 1.1972599,1.1972598 -7.004e-4,0.420082 -0.132285,0.831615 -0.5066133,1.055957 v 1.311386 A 0.13314929,0.13314929 135 0 1 8.5574973,12.826234 H 7.5450991 A 0.13314929,0.13314929 45 0 1 7.4119498,12.693085 V 11.381699 C 7.0376215,11.157357 6.8034405,10.745824 6.8027401,10.325742 6.8027841,9.664532 7.3387898,9.1285262 8,9.1284822 Z"
       sodipodi:nodetypes="ccccccccccccc"
       transform="matrix(1.3142496,0,0,1.3001258,-2.5139969,-2.989013)"
       inkscape:original-d="M 3.3320312,7.9726562 V 14.078125 H 12.667969 V 7.9726562 Z M 8,9.1284822 c 0.6612102,4.4e-5 1.1972159,0.5360498 1.1972599,1.1972598 -7.004e-4,0.420082 -0.132285,0.831615 -0.5066133,1.055957 v 1.444535 H 7.4119498 V 11.381699 C 7.0376215,11.157357 6.8034405,10.745824 6.8027401,10.325742 6.8027841,9.664532 7.3387898,9.1285262 8,9.1284822 Z"
       inkscape:path-effect="#path-effect5" />
    <path
       id="rect3"
       style="fill:none;stroke:#000000;stroke-width:1.2;stroke-linecap:round;stroke-linejoin:round;stroke-dasharray:none"
       d="M 4.3028428,6.7850909 V 4.7102528 C 4.3028428,2.2150211 6.5833701,0.94424661 8,0.93071861 9.4609988,0.91676461 11.697157,2.1790178 11.697157,4.7102528 v 2.0748381"
       sodipodi:nodetypes="csssc" />
  </g>
</svg>
